<svg width="399.99999999999994" height="115.91448931116389" xmlns="http://www.w3.org/2000/svg">

 <g>
  <title>background</title>
  <rect fill="none" id="canvas_background" height="402" width="582" y="-1" x="-1"/>
 </g>
 <g>
  <title>Layer 1</title>
  <g id="svgg">
   <path fill-rule="evenodd" fill="#e5e5e5" d="m346.333,0.167c0,0.092 -0.441,0.166 -0.99,0.166c-0.544,0 -1.036,0.075 -1.093,0.167c-0.057,0.092 -0.363,0.167 -0.682,0.167c-0.36,0 -0.615,0.094 -0.674,0.25c-0.055,0.142 -0.304,0.25 -0.578,0.25c-0.318,0 -0.483,0.085 -0.483,0.25c0,0.166 -0.166,0.25 -0.5,0.25c-0.333,0 -0.5,0.083 -0.5,0.25c0,0.155 -0.157,0.25 -0.416,0.25c-0.245,0 -0.417,0.095 -0.417,0.232c0,0.127 -0.187,0.279 -0.417,0.336c-0.229,0.058 -0.416,0.178 -0.416,0.268c0,0.09 -0.09,0.164 -0.199,0.164c-0.27,0 -1.468,1.303 -1.468,1.597c0,0.13 -0.075,0.236 -0.167,0.236c-0.091,0 -0.166,0.112 -0.166,0.25c0,0.138 -0.113,0.25 -0.25,0.25c-0.167,0 -0.25,0.167 -0.25,0.5c0,0.333 -0.084,0.5 -0.25,0.5c-0.181,0 -0.25,0.185 -0.25,0.667c0,0.481 -0.07,0.666 -0.25,0.666c-0.195,0 -0.25,0.223 -0.25,1c0,0.778 -0.056,1 -0.25,1c-0.218,0 -0.25,0.741 -0.25,5.667l0,5.667l-5.25,0l-5.25,0l0,3.071c0,4.012 -0.639,3.595 5.512,3.595l4.988,0l0,20.066c0,18.143 0.025,20.075 0.263,20.167c0.646,0.247 8.487,0.107 8.866,-0.159l0.371,-0.259l0,-19.907l0,-19.908l7.125,-0.016c3.918,-0.009 7.312,-0.069 7.541,-0.133l0.417,-0.115l0.045,-3.201l0.046,-3.201l-7.587,0l-7.587,0l0.005,-5.209c0.004,-4.315 0.047,-5.263 0.25,-5.532c0.135,-0.177 0.245,-0.487 0.245,-0.687c0,-0.201 0.112,-0.458 0.25,-0.572c0.137,-0.114 0.25,-0.349 0.25,-0.521c0,-0.172 0.075,-0.313 0.166,-0.313c0.092,0 0.167,-0.112 0.167,-0.25c0,-0.137 0.113,-0.25 0.25,-0.25c0.137,0 0.25,-0.112 0.25,-0.25c0,-0.166 0.167,-0.25 0.5,-0.25c0.333,0 0.5,-0.083 0.5,-0.25c0,-0.167 0.167,-0.25 0.505,-0.25c0.296,0 0.545,-0.104 0.601,-0.25c0.074,-0.191 0.387,-0.25 1.328,-0.25c0.711,0 1.233,-0.07 1.233,-0.166c0,-0.104 0.944,-0.167 2.5,-0.167c1.555,0 2.5,0.063 2.5,0.167c0,0.103 0.889,0.166 2.333,0.166l2.333,0l0,-2.903c0,-1.596 -0.045,-3.021 -0.101,-3.166c-0.121,-0.317 -14.399,-0.413 -14.399,-0.097m-323.106,4.583c-0.077,0.2 -0.44,0.25 -1.808,0.25c-1.318,0 -1.759,0.057 -1.919,0.25c-0.141,0.17 -0.52,0.25 -1.187,0.25c-0.76,0 -0.98,0.056 -0.98,0.25c0,0.189 -0.204,0.25 -0.838,0.25c-0.592,0 -0.867,0.074 -0.935,0.25c-0.054,0.141 -0.302,0.25 -0.568,0.25c-0.26,0 -0.519,0.075 -0.575,0.167c-0.057,0.091 -0.281,0.166 -0.498,0.166c-0.217,0 -0.498,0.103 -0.623,0.228c-0.126,0.126 -0.393,0.281 -0.595,0.345c-0.202,0.064 -0.368,0.186 -0.368,0.272c0,0.085 -0.15,0.155 -0.333,0.155c-0.185,0 -0.333,0.111 -0.333,0.25c0,0.138 -0.113,0.25 -0.25,0.25c-0.138,0 -0.25,0.113 -0.25,0.25c0,0.138 -0.095,0.25 -0.21,0.25c-0.299,0 -1.124,0.8 -1.124,1.09c0,0.134 -0.112,0.244 -0.25,0.244c-0.137,0 -0.25,0.112 -0.25,0.25c0,0.137 -0.112,0.25 -0.25,0.25c-0.137,0 -0.25,0.104 -0.25,0.232c0,0.128 -0.112,0.275 -0.25,0.328c-0.137,0.053 -0.25,0.278 -0.25,0.5c0,0.222 -0.112,0.447 -0.25,0.5c-0.137,0.053 -0.25,0.279 -0.25,0.504c0,0.224 -0.074,0.433 -0.164,0.463c-0.526,0.178 -1.026,15.973 -0.506,15.973c0.094,0 0.17,0.332 0.17,0.738c0,0.434 0.103,0.841 0.25,0.988c0.138,0.137 0.25,0.411 0.25,0.607c0,0.196 0.113,0.47 0.25,0.607c0.138,0.138 0.25,0.395 0.25,0.572c0,0.176 0.113,0.321 0.25,0.321c0.155,0 0.25,0.156 0.25,0.408c0,0.225 0.1,0.469 0.221,0.542c0.122,0.073 0.271,0.246 0.333,0.383c0.415,0.933 1.452,1.966 2.446,2.44c0.138,0.065 0.31,0.218 0.384,0.339c0.073,0.122 0.317,0.221 0.541,0.221c0.225,0 0.409,0.075 0.409,0.167c0,0.092 0.179,0.167 0.399,0.167c0.219,0 0.442,0.112 0.494,0.25c0.064,0.165 0.325,0.25 0.768,0.25c0.486,0 0.672,0.069 0.672,0.25c0,0.192 0.214,0.25 0.929,0.25c0.603,0 1.016,0.087 1.178,0.25c0.202,0.202 0.778,0.25 3,0.25c2.222,0 2.798,0.048 3,0.25c0.213,0.213 1.136,0.25 6.22,0.25c5.154,0 5.984,0.034 6.067,0.25c0.062,0.163 0.322,0.25 0.75,0.25c0.427,0 0.687,0.086 0.75,0.25c0.052,0.137 0.254,0.25 0.447,0.25c0.36,0 1.826,1.328 1.826,1.653c0,0.099 0.112,0.18 0.25,0.18c0.165,0 0.25,0.165 0.25,0.488c0,0.269 0.112,0.601 0.25,0.738c0.213,0.213 0.25,1.159 0.25,6.429c0,5.381 -0.033,6.178 -0.25,6.178c-0.167,0 -0.25,0.167 -0.25,0.5c0,0.275 -0.07,0.5 -0.156,0.5c-0.085,0 -0.205,0.158 -0.266,0.35c-0.128,0.403 -0.666,0.984 -0.912,0.984c-0.091,0 -0.166,0.112 -0.166,0.25c0,0.155 -0.158,0.25 -0.417,0.25c-0.259,0 -0.417,0.094 -0.417,0.25c0,0.166 -0.166,0.25 -0.5,0.25c-0.275,0 -0.5,0.075 -0.5,0.166c0,0.092 -0.294,0.167 -0.654,0.167c-0.361,0 -0.768,0.113 -0.905,0.25c-0.166,0.166 -0.581,0.25 -1.23,0.25c-0.604,0 -1.105,0.094 -1.304,0.245c-0.487,0.368 -10.479,0.373 -10.847,0.005c-0.192,-0.192 -0.676,-0.25 -2.083,-0.25c-1.408,0 -1.892,-0.058 -2.084,-0.25c-0.18,-0.18 -0.618,-0.25 -1.561,-0.25c-0.722,0 -1.358,-0.075 -1.415,-0.167c-0.057,-0.091 -0.653,-0.166 -1.325,-0.166c-0.933,0 -1.245,-0.06 -1.319,-0.25c-0.072,-0.19 -0.379,-0.25 -1.267,-0.25c-0.931,0 -1.172,-0.052 -1.172,-0.25c0,-0.192 -0.213,-0.25 -0.917,-0.25l-0.917,0l0,4.25l0,4.25l0.483,0c0.274,0 0.523,0.107 0.578,0.25c0.077,0.201 0.452,0.25 1.916,0.25c1.465,0 1.84,0.049 1.917,0.25c0.078,0.204 0.499,0.251 2.309,0.255c1.682,0.004 2.292,0.064 2.538,0.25c0.484,0.366 16.868,0.366 17.352,0c0.214,-0.162 0.736,-0.247 1.538,-0.25c0.921,-0.004 1.236,-0.066 1.309,-0.255c0.069,-0.18 0.35,-0.25 0.995,-0.25c0.688,0 0.899,-0.059 0.899,-0.25c0,-0.185 0.192,-0.25 0.732,-0.25c0.497,0 0.763,-0.081 0.828,-0.25c0.06,-0.157 0.315,-0.25 0.684,-0.25c0.412,0 0.589,-0.075 0.589,-0.25c0,-0.167 0.167,-0.25 0.5,-0.25c0.333,0 0.5,-0.084 0.5,-0.25c0,-0.138 0.144,-0.25 0.32,-0.25c0.361,0 1.344,-0.518 1.346,-0.709c0,-0.068 0.151,-0.125 0.334,-0.125c0.185,0 0.333,-0.111 0.333,-0.25c0,-0.137 0.113,-0.25 0.25,-0.25c0.138,0 0.25,-0.112 0.25,-0.25c0,-0.137 0.113,-0.25 0.25,-0.25c0.138,0 0.25,-0.112 0.25,-0.25c0,-0.137 0.113,-0.25 0.25,-0.25c0.138,0 0.25,-0.112 0.25,-0.25c0,-0.137 0.075,-0.25 0.167,-0.25c0.092,0 0.167,-0.104 0.167,-0.232c0,-0.128 0.112,-0.275 0.25,-0.328c0.137,-0.053 0.25,-0.248 0.25,-0.434c0,-0.19 0.109,-0.339 0.25,-0.339c0.166,0 0.25,-0.167 0.25,-0.5c0,-0.333 0.083,-0.5 0.25,-0.5c0.166,0 0.25,-0.167 0.25,-0.5c0,-0.333 0.083,-0.5 0.25,-0.5c0.179,0 0.25,-0.183 0.25,-0.649c0,-0.423 0.087,-0.682 0.25,-0.745c0.176,-0.067 0.25,-0.343 0.25,-0.94c0,-0.478 0.111,-1.014 0.255,-1.234c0.343,-0.524 0.298,-14.109 -0.047,-14.224c-0.133,-0.044 -0.208,-0.399 -0.208,-0.977c0,-0.653 -0.07,-0.935 -0.25,-1.004c-0.155,-0.059 -0.25,-0.313 -0.25,-0.667c0,-0.353 -0.095,-0.607 -0.25,-0.666c-0.138,-0.053 -0.25,-0.278 -0.25,-0.5c0,-0.223 -0.106,-0.445 -0.235,-0.495c-0.13,-0.049 -0.281,-0.272 -0.337,-0.494c-0.056,-0.223 -0.175,-0.405 -0.265,-0.405c-0.09,0 -0.163,-0.15 -0.163,-0.333c0,-0.186 -0.111,-0.334 -0.25,-0.334c-0.138,0 -0.25,-0.08 -0.25,-0.178c0,-0.231 -0.424,-0.655 -0.655,-0.655c-0.098,0 -0.179,-0.113 -0.179,-0.25c0,-0.138 -0.104,-0.25 -0.232,-0.25c-0.128,0 -0.275,-0.113 -0.328,-0.25c-0.053,-0.138 -0.286,-0.25 -0.518,-0.25c-0.264,0 -0.422,-0.094 -0.422,-0.25c0,-0.153 -0.155,-0.25 -0.399,-0.25c-0.219,0 -0.442,-0.112 -0.494,-0.25c-0.064,-0.165 -0.325,-0.25 -0.768,-0.25c-0.486,0 -0.672,-0.069 -0.672,-0.25c0,-0.182 -0.192,-0.251 -0.708,-0.255c-0.39,-0.003 -0.854,-0.116 -1.032,-0.25c-0.224,-0.17 -0.749,-0.245 -1.709,-0.245c-0.812,0 -1.384,-0.069 -1.384,-0.167c0,-0.108 -2.723,-0.166 -7.834,-0.166c-6.852,0 -7.833,-0.032 -7.833,-0.25c0,-0.199 -0.241,-0.25 -1.167,-0.25c-0.926,0 -1.166,-0.052 -1.166,-0.25c0,-0.167 -0.167,-0.25 -0.5,-0.25c-0.334,0 -0.5,-0.084 -0.5,-0.25c0,-0.156 -0.158,-0.25 -0.417,-0.25c-0.259,0 -0.417,-0.095 -0.417,-0.25c0,-0.138 -0.112,-0.25 -0.25,-0.25c-0.137,0 -0.25,-0.113 -0.25,-0.25c0,-0.138 -0.112,-0.25 -0.25,-0.25c-0.155,0 -0.25,-0.158 -0.25,-0.417c0,-0.259 -0.094,-0.417 -0.25,-0.417c-0.185,0 -0.25,-0.194 -0.25,-0.75c0,-0.555 -0.064,-0.75 -0.25,-0.75c-0.216,0 -0.25,-0.609 -0.25,-4.482c0,-3.83 0.037,-4.496 0.25,-4.578c0.17,-0.065 0.25,-0.331 0.25,-0.831c0,-0.45 0.097,-0.815 0.25,-0.942c0.138,-0.114 0.25,-0.351 0.25,-0.526c0,-0.175 0.113,-0.361 0.25,-0.414c0.138,-0.052 0.25,-0.2 0.25,-0.328c0,-0.128 0.113,-0.232 0.25,-0.232c0.138,0 0.25,-0.113 0.25,-0.25c0,-0.138 0.113,-0.25 0.25,-0.25c0.138,0 0.25,-0.113 0.25,-0.25c0,-0.156 0.158,-0.25 0.417,-0.25c0.259,0 0.417,-0.094 0.417,-0.25c0,-0.167 0.166,-0.25 0.5,-0.25c0.333,0 0.5,-0.083 0.5,-0.25c0,-0.192 0.213,-0.25 0.916,-0.25c0.504,0 0.917,-0.075 0.917,-0.167c0,-0.098 0.607,-0.166 1.488,-0.166c1.101,0 1.553,-0.065 1.738,-0.25c0.367,-0.367 8.862,-0.362 9.348,0.005c0.245,0.185 0.838,0.245 2.448,0.245c1.237,0 2.168,0.069 2.228,0.166c0.058,0.095 0.885,0.167 1.909,0.167c1.451,0 1.824,0.049 1.901,0.25c0.078,0.203 0.473,0.25 2.101,0.25l2.006,0l0,-3.75l0,-3.75l-0.846,0c-0.529,0 -0.938,-0.094 -1.095,-0.25c-0.199,-0.199 -0.741,-0.25 -2.666,-0.25c-1.926,0 -2.468,-0.051 -2.667,-0.25c-0.216,-0.216 -1.407,-0.25 -8.66,-0.25c-7.322,0 -8.423,0.032 -8.506,0.25m214.668,-0.004c-0.078,0.204 -0.42,0.254 -1.734,0.254c-1.233,0 -1.699,0.062 -1.887,0.25c-0.163,0.162 -0.576,0.25 -1.179,0.25c-0.714,0 -0.928,0.058 -0.928,0.25c0,0.191 -0.211,0.25 -0.899,0.25c-0.645,0 -0.926,0.071 -0.995,0.25c-0.055,0.145 -0.305,0.25 -0.591,0.25c-0.273,0 -0.537,0.066 -0.587,0.148c-0.05,0.081 -0.355,0.197 -0.676,0.257c-0.322,0.061 -0.586,0.173 -0.586,0.25c0,0.077 -0.131,0.187 -0.291,0.245c-0.723,0.261 -1.542,0.928 -1.542,1.255c0,0.098 -0.11,0.178 -0.244,0.178c-0.28,0 -1.256,0.903 -1.256,1.161c0,0.095 -0.113,0.173 -0.25,0.173c-0.138,0 -0.25,0.112 -0.25,0.25c0,0.137 -0.096,0.25 -0.213,0.25c-0.117,0 -0.36,0.336 -0.541,0.748c-0.181,0.412 -0.386,0.749 -0.454,0.75c-0.069,0.001 -0.125,0.219 -0.125,0.484c0,0.275 -0.108,0.523 -0.25,0.578c-0.159,0.061 -0.25,0.316 -0.25,0.696c0,0.331 -0.113,0.713 -0.25,0.851c-0.215,0.214 -0.25,1.258 -0.25,7.321c0,6.175 0.031,7.072 0.25,7.072c0.191,0 0.25,0.211 0.25,0.899c0,0.645 0.07,0.925 0.25,0.994c0.137,0.053 0.25,0.282 0.25,0.508c0,0.227 0.075,0.459 0.166,0.515c0.092,0.057 0.167,0.286 0.167,0.51c0,0.251 0.096,0.407 0.25,0.407c0.156,0 0.25,0.158 0.25,0.422c0,0.232 0.112,0.465 0.25,0.518c0.137,0.052 0.25,0.183 0.25,0.291c0,0.107 0.225,0.441 0.5,0.742c0.275,0.301 0.5,0.618 0.5,0.704c0,0.086 0.112,0.156 0.25,0.156c0.137,0 0.25,0.113 0.25,0.25c0,0.138 0.142,0.25 0.316,0.25c0.173,0 0.358,0.113 0.411,0.25c0.053,0.138 0.203,0.25 0.333,0.25c0.131,0 0.281,0.113 0.334,0.25c0.052,0.138 0.285,0.25 0.517,0.25c0.232,0 0.422,0.075 0.422,0.167c0,0.092 0.225,0.167 0.5,0.167c0.334,0 0.5,0.083 0.5,0.25c0,0.179 0.184,0.25 0.649,0.25c0.423,0 0.682,0.087 0.745,0.25c0.068,0.177 0.344,0.25 0.946,0.25c0.534,0 0.944,0.093 1.101,0.25c0.203,0.203 0.793,0.25 3.137,0.25c2.412,0 2.902,0.041 2.983,0.25c0.082,0.216 0.926,0.25 6.184,0.25c5.301,0 6.089,0.032 6.089,0.25c0,0.175 0.177,0.25 0.595,0.25c0.327,0 0.708,0.112 0.845,0.25c0.138,0.137 0.395,0.25 0.572,0.25c0.176,0 0.321,0.075 0.321,0.166c0,0.092 0.112,0.167 0.25,0.167c0.137,0 0.25,0.112 0.25,0.25c0,0.137 0.112,0.25 0.25,0.25c0.137,0 0.25,0.112 0.25,0.25c0,0.137 0.112,0.25 0.25,0.25c0.137,0 0.25,0.112 0.25,0.25c0,0.137 0.065,0.25 0.145,0.25c0.08,0 0.194,0.3 0.252,0.667c0.059,0.366 0.181,0.666 0.272,0.666c0.299,0 0.216,12.306 -0.086,12.607c-0.137,0.138 -0.25,0.395 -0.25,0.572c0,0.177 -0.075,0.321 -0.166,0.321c-0.092,0 -0.167,0.188 -0.167,0.417c0,0.259 -0.094,0.417 -0.25,0.417c-0.138,0 -0.25,0.112 -0.25,0.25c0,0.137 -0.113,0.25 -0.25,0.25c-0.138,0 -0.25,0.112 -0.25,0.25c0,0.166 -0.167,0.25 -0.5,0.25c-0.333,0 -0.5,0.083 -0.5,0.25c0,0.154 -0.156,0.25 -0.407,0.25c-0.224,0 -0.453,0.075 -0.51,0.166c-0.056,0.092 -0.389,0.167 -0.739,0.167c-0.362,0 -0.726,0.108 -0.844,0.25c-0.144,0.174 -0.528,0.25 -1.259,0.25c-0.712,0 -1.131,0.081 -1.301,0.25c-0.373,0.374 -10.34,0.374 -10.714,0c-0.194,-0.194 -0.691,-0.25 -2.22,-0.25c-1.598,0 -1.988,-0.047 -2.066,-0.25c-0.074,-0.193 -0.398,-0.25 -1.425,-0.25c-0.731,0 -1.375,-0.075 -1.432,-0.167c-0.056,-0.091 -0.698,-0.166 -1.426,-0.166c-1.066,0 -1.324,-0.049 -1.324,-0.25c0,-0.198 -0.238,-0.25 -1.149,-0.25c-0.867,0 -1.172,-0.062 -1.244,-0.25c-0.068,-0.177 -0.343,-0.25 -0.935,-0.25l-0.838,0l0,4.25l0,4.25l0.399,0c0.219,0 0.442,0.112 0.494,0.25c0.077,0.2 0.446,0.25 1.863,0.25c1.349,0 1.827,0.059 2.017,0.25c0.197,0.196 0.713,0.25 2.417,0.25c1.704,0 2.22,0.053 2.417,0.25c0.377,0.376 17.075,0.376 17.452,0c0.175,-0.176 0.604,-0.25 1.434,-0.25c0.899,0 1.207,-0.061 1.28,-0.25c0.069,-0.18 0.349,-0.25 0.994,-0.25c0.688,0 0.899,-0.059 0.899,-0.25c0,-0.185 0.193,-0.25 0.733,-0.25c0.497,0 0.762,-0.081 0.828,-0.25c0.06,-0.157 0.315,-0.25 0.684,-0.25c0.412,0 0.589,-0.075 0.589,-0.25c0,-0.167 0.166,-0.25 0.5,-0.25c0.333,0 0.5,-0.084 0.5,-0.25c0,-0.167 0.166,-0.25 0.5,-0.25c0.275,0 0.5,-0.058 0.5,-0.127c0,-0.128 0.494,-0.429 1.041,-0.636c0.161,-0.06 0.292,-0.213 0.292,-0.34c0,-0.127 0.112,-0.231 0.25,-0.231c0.137,0 0.25,-0.112 0.25,-0.25c0,-0.137 0.112,-0.25 0.25,-0.25c0.137,0 0.25,-0.112 0.25,-0.25c0,-0.137 0.112,-0.25 0.25,-0.25c0.137,0 0.25,-0.112 0.25,-0.25c0,-0.137 0.112,-0.25 0.25,-0.25c0.137,0 0.25,-0.112 0.25,-0.25c0,-0.137 0.074,-0.25 0.163,-0.25c0.09,0 0.21,-0.182 0.266,-0.404c0.055,-0.223 0.207,-0.445 0.336,-0.495c0.129,-0.05 0.235,-0.28 0.235,-0.512c0,-0.232 0.075,-0.422 0.167,-0.422c0.091,0 0.166,-0.225 0.166,-0.5c0,-0.333 0.084,-0.5 0.25,-0.5c0.181,0 0.25,-0.185 0.25,-0.667c0,-0.481 0.07,-0.666 0.25,-0.666c0.194,0 0.25,-0.22 0.25,-0.98c0,-0.667 0.08,-1.046 0.25,-1.187c0.215,-0.178 0.25,-1.187 0.25,-7.192c0,-6.055 -0.033,-6.998 -0.25,-7.081c-0.179,-0.069 -0.25,-0.35 -0.25,-1c0,-0.65 -0.07,-0.931 -0.25,-1c-0.163,-0.063 -0.25,-0.322 -0.25,-0.745c0,-0.465 -0.07,-0.649 -0.25,-0.649c-0.166,0 -0.25,-0.166 -0.25,-0.5c0,-0.275 -0.066,-0.5 -0.147,-0.5c-0.081,0 -0.195,-0.131 -0.253,-0.291c-0.268,-0.744 -1.384,-2.042 -1.754,-2.042c-0.098,0 -0.179,-0.113 -0.179,-0.25c0,-0.138 -0.113,-0.25 -0.25,-0.25c-0.138,0 -0.25,-0.113 -0.25,-0.25c0,-0.153 -0.155,-0.25 -0.399,-0.25c-0.219,0 -0.442,-0.113 -0.495,-0.25c-0.052,-0.138 -0.285,-0.25 -0.517,-0.25c-0.264,0 -0.422,-0.094 -0.422,-0.25c0,-0.185 -0.195,-0.25 -0.75,-0.25c-0.556,0 -0.75,-0.065 -0.75,-0.25c0,-0.182 -0.193,-0.251 -0.709,-0.255c-0.389,-0.003 -0.854,-0.116 -1.032,-0.25c-0.219,-0.167 -0.737,-0.245 -1.615,-0.245c-0.71,0 -1.338,-0.075 -1.394,-0.167c-0.067,-0.107 -2.865,-0.166 -7.849,-0.166c-6.731,0 -7.758,-0.033 -7.841,-0.25c-0.071,-0.186 -0.366,-0.25 -1.144,-0.25c-0.777,0 -1.072,-0.065 -1.143,-0.25c-0.053,-0.138 -0.278,-0.25 -0.5,-0.25c-0.223,0 -0.448,-0.113 -0.5,-0.25c-0.053,-0.138 -0.286,-0.25 -0.518,-0.25c-0.264,0 -0.422,-0.094 -0.422,-0.25c0,-0.138 -0.113,-0.25 -0.25,-0.25c-0.138,0 -0.25,-0.113 -0.25,-0.25c0,-0.138 -0.113,-0.25 -0.25,-0.25c-0.156,0 -0.25,-0.158 -0.25,-0.417c0,-0.229 -0.075,-0.417 -0.167,-0.417c-0.091,0 -0.166,-0.257 -0.166,-0.571c0,-0.314 -0.113,-0.684 -0.25,-0.822c-0.21,-0.209 -0.25,-0.956 -0.25,-4.607c0,-3.65 0.04,-4.397 0.25,-4.607c0.146,-0.146 0.25,-0.553 0.25,-0.978c0,-0.401 0.075,-0.775 0.166,-0.831c0.092,-0.057 0.167,-0.251 0.167,-0.432c0,-0.181 0.112,-0.372 0.25,-0.425c0.137,-0.052 0.25,-0.2 0.25,-0.328c0,-0.128 0.112,-0.232 0.25,-0.232c0.137,0 0.25,-0.113 0.25,-0.25c0,-0.138 0.112,-0.25 0.25,-0.25c0.137,0 0.25,-0.113 0.25,-0.25c0,-0.153 0.155,-0.25 0.399,-0.25c0.219,0 0.442,-0.113 0.495,-0.25c0.052,-0.138 0.285,-0.25 0.517,-0.25c0.264,0 0.422,-0.094 0.422,-0.25c0,-0.192 0.212,-0.25 0.907,-0.25c0.499,0 0.953,-0.075 1.01,-0.167c0.057,-0.091 0.722,-0.166 1.478,-0.166c0.951,0 1.475,-0.076 1.698,-0.245c0.479,-0.362 8.836,-0.362 9.314,0c0.247,0.187 0.85,0.245 2.542,0.245c1.368,0 2.218,0.064 2.218,0.166c0,0.102 0.75,0.167 1.917,0.167c1.592,0 1.916,0.042 1.916,0.25c0,0.209 0.343,0.25 2.084,0.25l2.083,0l0,-3.75l0,-3.75l-0.982,0c-0.719,0 -1.008,-0.067 -1.078,-0.25c-0.08,-0.207 -0.527,-0.25 -2.588,-0.25c-1.845,0 -2.509,-0.054 -2.56,-0.208c-0.115,-0.346 -17.264,-0.391 -17.397,-0.046m132.938,9.254l0,7.167l-5,0l-5,0l0,3.23c0,3.886 -0.711,3.431 5.375,3.434l4.625,0.002l0,14.98c0,13.112 0.032,15.005 0.25,15.187c0.178,0.148 0.25,0.538 0.25,1.354c0,0.908 0.052,1.146 0.25,1.146c0.189,0 0.25,0.203 0.25,0.823c0,0.453 0.075,0.87 0.167,0.927c0.092,0.057 0.167,0.288 0.167,0.515c0,0.227 0.112,0.455 0.25,0.508c0.137,0.053 0.25,0.278 0.25,0.5c0,0.222 0.112,0.447 0.25,0.5c0.137,0.053 0.25,0.2 0.25,0.328c0,0.128 0.112,0.232 0.25,0.232c0.137,0 0.25,0.113 0.25,0.25c0,0.138 0.112,0.25 0.25,0.25c0.137,0 0.25,0.075 0.25,0.167c0,0.092 0.112,0.167 0.25,0.167c0.137,0 0.25,0.112 0.25,0.25c0,0.137 0.112,0.25 0.25,0.25c0.137,0 0.25,0.112 0.25,0.25c0,0.155 0.157,0.25 0.416,0.25c0.26,0 0.417,0.094 0.417,0.25c0,0.166 0.167,0.25 0.5,0.25c0.333,0 0.5,0.083 0.5,0.25c0,0.181 0.186,0.25 0.672,0.25c0.443,0 0.704,0.085 0.768,0.25c0.068,0.178 0.348,0.25 0.981,0.25c0.559,0 0.91,0.076 0.954,0.208c0.054,0.162 1.645,0.208 7.208,0.208c5.563,0 7.155,-0.046 7.209,-0.208c0.045,-0.135 0.414,-0.208 1.055,-0.208l0.986,0l0,-3.334l0,-3.333l-1.083,0c-0.852,0 -1.083,0.053 -1.083,0.25c0,0.208 -0.324,0.25 -1.917,0.25c-1.593,0 -1.917,0.042 -1.917,0.25c0,0.206 -0.305,0.25 -1.75,0.25c-1.444,0 -1.75,-0.044 -1.75,-0.25c0,-0.203 -0.268,-0.25 -1.416,-0.25c-1.148,0 -1.417,-0.047 -1.417,-0.25c0,-0.175 -0.176,-0.25 -0.583,-0.25c-0.327,0 -0.72,-0.128 -0.893,-0.292c-0.17,-0.16 -0.545,-0.478 -0.833,-0.706c-0.289,-0.228 -0.524,-0.51 -0.524,-0.625c0,-0.116 -0.113,-0.21 -0.25,-0.21c-0.167,0 -0.25,-0.167 -0.25,-0.5c0,-0.275 -0.075,-0.5 -0.167,-0.5c-0.092,0 -0.167,-0.441 -0.167,-0.988c0,-0.657 -0.084,-1.073 -0.25,-1.239c-0.218,-0.218 -0.25,-2.047 -0.25,-14.428l0,-14.179l7.625,-0.002c4.194,-0.001 7.907,-0.048 8.25,-0.105l0.625,-0.103l0,-3.228l0,-3.228l-8.25,0l-8.25,0l0,-7.167l0,-7.167l-4.75,0l-4.75,0l0,7.167m-290.273,6.417c-0.072,0.188 -0.377,0.25 -1.244,0.25c-0.911,0 -1.149,0.052 -1.149,0.25c0,0.189 -0.205,0.25 -0.839,0.25c-0.592,0 -0.867,0.073 -0.934,0.25c-0.055,0.142 -0.304,0.25 -0.578,0.25c-0.318,0 -0.483,0.085 -0.483,0.25c0,0.166 -0.166,0.25 -0.5,0.25c-0.275,0 -0.5,0.07 -0.5,0.155c0,0.086 -0.145,0.202 -0.323,0.258c-0.178,0.057 -0.703,0.48 -1.167,0.942l-0.843,0.839l0,-1.597l0,-1.597l-4.75,0l-4.75,0l0,23.25l0,23.25l4.75,0l4.75,0l0,-17.512c0,-15.344 0.031,-17.543 0.25,-17.762c0.137,-0.138 0.25,-0.471 0.25,-0.742c0,-0.27 0.188,-0.788 0.417,-1.151c0.229,-0.363 0.416,-0.72 0.416,-0.793c0,-0.073 0.16,-0.244 0.354,-0.379c0.195,-0.134 0.452,-0.338 0.572,-0.453c0.119,-0.115 0.298,-0.208 0.396,-0.208c0.098,0 0.178,-0.113 0.178,-0.25c0,-0.166 0.166,-0.25 0.49,-0.25c0.27,0 0.537,-0.075 0.594,-0.167c0.056,-0.092 0.421,-0.167 0.811,-0.167c0.39,0 0.854,-0.11 1.032,-0.244c0.487,-0.369 10.645,-0.374 11.014,-0.006c0.137,0.138 0.465,0.25 0.728,0.25c0.263,0 0.525,0.075 0.581,0.167c0.057,0.092 0.286,0.167 0.51,0.167c0.251,0 0.407,0.096 0.407,0.25c0,0.137 0.099,0.25 0.219,0.25c0.236,0 1.281,1.1 1.281,1.349c0,0.083 0.075,0.151 0.167,0.151c0.091,0 0.166,0.144 0.166,0.321c0,0.177 0.113,0.434 0.25,0.572c0.183,0.182 0.25,0.628 0.25,1.658c0,1.046 0.064,1.461 0.25,1.615c0.217,0.18 0.254,2.332 0.291,16.978l0.043,16.772l4.307,0.045c4.276,0.044 4.309,0.042 4.705,-0.333l0.399,-0.378l0.002,-16.881c0.003,-14.852 -0.027,-16.891 -0.247,-16.976c-0.205,-0.078 -0.25,-0.498 -0.25,-2.333c0,-1.835 -0.045,-2.255 -0.25,-2.333c-0.169,-0.066 -0.25,-0.331 -0.25,-0.828c0,-0.54 -0.065,-0.733 -0.25,-0.733c-0.165,0 -0.25,-0.165 -0.25,-0.49c0,-0.269 -0.075,-0.536 -0.166,-0.593c-0.092,-0.057 -0.167,-0.249 -0.167,-0.427c0,-0.177 -0.112,-0.323 -0.25,-0.323c-0.156,0 -0.25,-0.158 -0.25,-0.422c0,-0.232 -0.112,-0.465 -0.25,-0.518c-0.138,-0.052 -0.25,-0.2 -0.25,-0.328c0,-0.128 -0.112,-0.232 -0.25,-0.232c-0.138,0 -0.25,-0.113 -0.25,-0.25c0,-0.137 -0.094,-0.253 -0.208,-0.257c-0.115,-0.004 -0.393,-0.229 -0.618,-0.5c-0.224,-0.271 -0.543,-0.493 -0.708,-0.493c-0.165,0 -0.299,-0.075 -0.299,-0.167c0,-0.091 -0.115,-0.166 -0.256,-0.166c-0.14,0 -0.298,-0.113 -0.351,-0.25c-0.062,-0.163 -0.322,-0.25 -0.744,-0.25c-0.466,0 -0.649,-0.071 -0.649,-0.25c0,-0.181 -0.186,-0.25 -0.672,-0.25c-0.444,0 -0.705,-0.085 -0.768,-0.25c-0.072,-0.189 -0.375,-0.25 -1.227,-0.25c-0.852,0 -1.155,-0.062 -1.227,-0.25c-0.083,-0.216 -0.89,-0.25 -5.856,-0.25c-4.967,0 -5.774,0.034 -5.857,0.25m43.88,0c-0.203,0.203 -0.796,0.25 -3.172,0.25c-3.603,0 -3.289,-0.393 -3.23,4.037l0.045,3.379l0.647,0.053c0.356,0.03 0.727,-0.027 0.825,-0.125c0.105,-0.105 0.939,-0.178 2.03,-0.178c1.37,0 1.935,-0.063 2.175,-0.244c0.256,-0.194 0.955,-0.246 3.37,-0.25c2.551,-0.005 3.063,-0.046 3.143,-0.256c0.081,-0.211 0.625,-0.25 3.477,-0.25c2.852,0 3.396,0.039 3.477,0.25c0.075,0.197 0.418,0.25 1.613,0.25c1.126,0 1.582,0.065 1.767,0.25c0.138,0.138 0.503,0.25 0.812,0.25c0.309,0 0.608,0.075 0.664,0.167c0.057,0.092 0.249,0.167 0.427,0.167c0.178,0 0.323,0.094 0.323,0.21c0,0.116 0.163,0.285 0.362,0.375c0.198,0.091 0.442,0.315 0.541,0.498c0.1,0.183 0.227,0.371 0.283,0.417c0.057,0.045 0.155,0.252 0.22,0.458c0.064,0.206 0.187,0.375 0.272,0.375c0.086,0 0.156,0.602 0.156,1.339c0,1.036 0.056,1.36 0.25,1.434c0.21,0.081 0.25,0.6 0.25,3.245l0,3.149l-8.422,0c-7.333,0 -8.435,0.032 -8.518,0.25c-0.078,0.203 -0.48,0.25 -2.167,0.25c-1.687,0 -2.088,0.046 -2.166,0.25c-0.071,0.183 -0.359,0.25 -1.078,0.25c-0.762,0 -0.983,0.056 -0.983,0.25c0,0.18 -0.185,0.25 -0.666,0.25c-0.367,0 -0.667,0.075 -0.667,0.166c0,0.092 -0.19,0.167 -0.422,0.167c-0.232,0 -0.465,0.112 -0.518,0.25c-0.052,0.137 -0.277,0.25 -0.5,0.25c-0.222,0 -0.447,0.112 -0.5,0.25c-0.052,0.137 -0.2,0.25 -0.328,0.25c-0.128,0 -0.232,0.112 -0.232,0.25c0,0.137 -0.075,0.25 -0.167,0.25c-0.091,0 -0.166,0.112 -0.166,0.25c0,0.137 -0.113,0.25 -0.25,0.25c-0.138,0 -0.25,0.112 -0.25,0.25c0,0.137 -0.113,0.25 -0.25,0.25c-0.138,0 -0.25,0.104 -0.25,0.232c0,0.128 -0.113,0.276 -0.25,0.328c-0.138,0.053 -0.25,0.241 -0.25,0.417c0,0.176 -0.113,0.364 -0.25,0.417c-0.165,0.063 -0.25,0.324 -0.25,0.767c0,0.487 -0.069,0.672 -0.25,0.672c-0.186,0 -0.25,0.195 -0.25,0.75c0,0.413 -0.075,0.75 -0.167,0.75c-0.108,0 -0.167,1.973 -0.167,5.584c0,3.611 0.059,5.583 0.167,5.583c0.092,0 0.167,0.415 0.167,0.922c0,0.666 0.069,0.948 0.25,1.018c0.163,0.062 0.25,0.322 0.25,0.744c0,0.466 0.07,0.649 0.25,0.649c0.166,0 0.25,0.167 0.25,0.5c0,0.334 0.083,0.5 0.25,0.5c0.137,0 0.25,0.113 0.25,0.25c0,0.138 0.112,0.25 0.25,0.25c0.155,0 0.25,0.158 0.25,0.417c0,0.259 0.094,0.417 0.25,0.417c0.137,0 0.25,0.112 0.25,0.25c0,0.137 0.104,0.25 0.232,0.25c0.128,0 0.275,0.112 0.328,0.25c0.053,0.137 0.248,0.25 0.434,0.25c0.19,0 0.339,0.109 0.339,0.25c0,0.166 0.167,0.25 0.5,0.25c0.333,0 0.5,0.083 0.5,0.25c0,0.166 0.167,0.25 0.5,0.25c0.333,0 0.5,0.083 0.5,0.25c0,0.181 0.187,0.25 0.679,0.25c0.381,0 0.788,0.109 0.928,0.25c0.162,0.161 0.574,0.25 1.167,0.25c0.592,0 1.005,0.088 1.166,0.25c0.371,0.37 13.164,0.375 13.653,0.005c0.187,-0.141 0.696,-0.247 1.204,-0.25c0.625,-0.004 0.908,-0.078 0.976,-0.255c0.063,-0.164 0.322,-0.25 0.75,-0.25c0.428,0 0.687,-0.087 0.75,-0.25c0.053,-0.138 0.275,-0.25 0.495,-0.25c0.243,0 0.399,-0.098 0.399,-0.25c0,-0.167 0.166,-0.25 0.5,-0.25c0.333,0 0.5,-0.084 0.5,-0.25c0,-0.138 0.112,-0.25 0.25,-0.25c0.137,0 0.25,-0.113 0.25,-0.25c0,-0.138 0.112,-0.25 0.25,-0.25c0.196,0 0.25,0.23 0.25,1.077c0,1.462 -0.129,1.423 4.697,1.42l4.053,-0.003l0.377,-0.398l0.378,-0.398l-0.045,-16.377c-0.034,-12.922 -0.088,-16.392 -0.252,-16.446c-0.155,-0.052 -0.208,-0.766 -0.208,-2.811c0,-2.283 -0.042,-2.758 -0.25,-2.837c-0.18,-0.069 -0.25,-0.351 -0.25,-1c0,-0.65 -0.071,-0.931 -0.25,-1c-0.14,-0.054 -0.25,-0.302 -0.25,-0.561c0,-0.259 -0.111,-0.506 -0.25,-0.56c-0.138,-0.053 -0.25,-0.248 -0.25,-0.434c0,-0.187 -0.075,-0.339 -0.167,-0.339c-0.092,0 -0.167,-0.19 -0.167,-0.422c0,-0.232 -0.112,-0.465 -0.25,-0.518c-0.137,-0.052 -0.25,-0.2 -0.25,-0.328c0,-0.128 -0.069,-0.232 -0.153,-0.232c-0.084,0 -0.465,-0.3 -0.847,-0.667c-0.401,-0.385 -0.856,-0.666 -1.079,-0.666c-0.212,0 -0.428,-0.113 -0.481,-0.25c-0.059,-0.155 -0.313,-0.25 -0.667,-0.25c-0.353,0 -0.607,-0.095 -0.666,-0.25c-0.07,-0.181 -0.352,-0.25 -1.018,-0.25c-0.708,0 -0.922,-0.058 -0.922,-0.25c0,-0.203 -0.267,-0.25 -1.399,-0.25c-1.089,0 -1.42,-0.056 -1.495,-0.25c-0.083,-0.218 -1.267,-0.25 -9.256,-0.25c-7.92,0 -9.193,0.034 -9.41,0.25m61.467,-0.006c-0.209,0.158 -0.725,0.247 -1.454,0.25c-0.847,0.004 -1.154,0.068 -1.226,0.256c-0.065,0.168 -0.329,0.25 -0.808,0.25c-0.429,0 -0.794,0.099 -0.919,0.25c-0.114,0.137 -0.423,0.25 -0.687,0.25c-0.315,0 -0.48,0.085 -0.48,0.25c0,0.166 -0.166,0.25 -0.5,0.25c-0.275,0 -0.5,0.07 -0.5,0.155c0,0.086 -0.131,0.199 -0.291,0.252c-0.161,0.053 -0.555,0.328 -0.875,0.612l-0.584,0.516l-0.048,-1.268l-0.049,-1.267l-4.743,0l-4.743,0l0,33.252l0,33.253l4.708,-0.044l4.709,-0.045l0.043,-10.708c0.037,-9.365 0.074,-10.708 0.291,-10.708c0.137,0 0.249,0.112 0.249,0.25c0,0.155 0.157,0.25 0.417,0.25c0.259,0 0.416,0.094 0.416,0.25c0,0.166 0.167,0.25 0.5,0.25c0.334,0 0.5,0.083 0.5,0.25c0,0.185 0.195,0.25 0.75,0.25c0.556,0 0.75,0.064 0.75,0.25c0,0.192 0.22,0.251 0.959,0.255c0.577,0.003 1.087,0.103 1.282,0.25c0.489,0.37 13.452,0.365 13.759,-0.005c0.144,-0.174 0.527,-0.25 1.253,-0.25c0.775,0 1.07,-0.065 1.141,-0.25c0.067,-0.176 0.341,-0.25 0.917,-0.25c0.575,0 0.849,-0.075 0.916,-0.25c0.055,-0.143 0.304,-0.25 0.581,-0.25c0.267,0 0.578,-0.113 0.692,-0.25c0.114,-0.138 0.424,-0.25 0.687,-0.25c0.316,0 0.48,-0.086 0.48,-0.25c0,-0.157 0.158,-0.25 0.422,-0.25c0.232,0 0.465,-0.113 0.518,-0.25c0.052,-0.138 0.2,-0.25 0.328,-0.25c0.128,0 0.233,-0.057 0.233,-0.125c0.001,-0.069 0.282,-0.313 0.625,-0.542c0.778,-0.519 1.195,-0.996 1.202,-1.375c0.003,-0.16 0.118,-0.292 0.255,-0.292c0.138,0 0.25,-0.112 0.25,-0.25c0,-0.137 0.113,-0.25 0.25,-0.25c0.156,0 0.25,-0.157 0.25,-0.416c0,-0.26 0.095,-0.417 0.25,-0.417c0.138,0 0.25,-0.118 0.25,-0.262c0,-0.144 0.113,-0.374 0.25,-0.512c0.138,-0.137 0.25,-0.469 0.25,-0.738c0,-0.268 0.075,-0.488 0.167,-0.488c0.092,0 0.167,-0.225 0.167,-0.5c0,-0.333 0.083,-0.5 0.25,-0.5c0.191,0 0.25,-0.211 0.25,-0.899c0,-0.645 0.07,-0.926 0.25,-0.995c0.219,-0.084 0.25,-1.741 0.25,-13.517c0,-11.82 -0.03,-13.422 -0.25,-13.422c-0.181,0 -0.25,-0.186 -0.25,-0.667c0,-0.481 -0.07,-0.667 -0.25,-0.667c-0.167,0 -0.25,-0.166 -0.25,-0.5c0,-0.275 -0.075,-0.5 -0.167,-0.5c-0.092,0 -0.167,-0.183 -0.167,-0.408c0,-0.225 -0.093,-0.468 -0.208,-0.542c-0.244,-0.156 -0.593,-0.676 -0.733,-1.091c-0.053,-0.161 -0.201,-0.292 -0.328,-0.292c-0.127,0 -0.231,-0.113 -0.231,-0.25c0,-0.137 -0.112,-0.25 -0.25,-0.25c-0.137,0 -0.25,-0.113 -0.25,-0.25c0,-0.137 -0.112,-0.25 -0.25,-0.25c-0.137,0 -0.25,-0.113 -0.25,-0.25c0,-0.137 -0.112,-0.25 -0.25,-0.25c-0.137,0 -0.25,-0.113 -0.25,-0.25c0,-0.137 -0.112,-0.25 -0.25,-0.25c-0.137,0 -0.25,-0.07 -0.25,-0.155c0,-0.086 -0.152,-0.204 -0.338,-0.263c-0.187,-0.059 -0.535,-0.29 -0.775,-0.512c-0.239,-0.222 -0.604,-0.403 -0.81,-0.403c-0.206,0 -0.418,-0.113 -0.47,-0.25c-0.06,-0.155 -0.313,-0.25 -0.667,-0.25c-0.354,0 -0.607,-0.095 -0.667,-0.25c-0.062,-0.164 -0.322,-0.25 -0.75,-0.25c-0.427,0 -0.687,-0.087 -0.75,-0.25c-0.071,-0.187 -0.368,-0.25 -1.164,-0.25c-0.746,0 -1.13,-0.076 -1.275,-0.25c-0.307,-0.37 -11.771,-0.375 -12.26,-0.006m102.32,0.006c-0.072,0.188 -0.377,0.25 -1.245,0.25c-0.91,0 -1.149,0.052 -1.149,0.25c0,0.192 -0.213,0.25 -0.922,0.25c-0.665,0 -0.948,0.069 -1.017,0.25c-0.063,0.163 -0.322,0.25 -0.745,0.25c-0.466,0 -0.649,0.07 -0.649,0.25c0,0.166 -0.167,0.25 -0.5,0.25c-0.275,0 -0.5,0.067 -0.5,0.148c0,0.082 -0.187,0.196 -0.417,0.253c-0.229,0.058 -0.416,0.179 -0.416,0.269c0,0.089 -0.096,0.163 -0.213,0.163c-0.239,0 -0.787,0.582 -0.787,0.835c0,0.091 -0.113,0.165 -0.25,0.165c-0.138,0 -0.25,0.113 -0.25,0.25c0,0.137 -0.113,0.25 -0.25,0.25c-0.138,0 -0.25,0.116 -0.25,0.257c0,0.253 -0.127,0.448 -0.709,1.088c-0.16,0.177 -0.291,0.44 -0.291,0.584c0,0.144 -0.113,0.374 -0.25,0.511c-0.138,0.138 -0.25,0.433 -0.25,0.655c0,0.223 -0.075,0.405 -0.167,0.405c-0.092,0 -0.167,0.3 -0.167,0.667c0,0.481 -0.069,0.666 -0.25,0.666c-0.189,0 -0.25,0.205 -0.25,0.846c0,0.529 -0.093,0.938 -0.25,1.095c-0.218,0.218 -0.25,1.98 -0.25,13.821c0,11.953 0.03,13.572 0.25,13.572c0.192,0 0.25,0.213 0.25,0.916c0,0.704 0.058,0.917 0.25,0.917c0.186,0 0.25,0.194 0.25,0.75c0,0.413 0.075,0.75 0.167,0.75c0.092,0 0.167,0.152 0.167,0.339c0,0.186 0.105,0.379 0.235,0.428c0.129,0.05 0.28,0.273 0.336,0.495c0.056,0.223 0.175,0.405 0.265,0.405c0.09,0 0.164,0.115 0.164,0.255c0,0.14 0.112,0.298 0.25,0.351c0.137,0.053 0.25,0.2 0.25,0.328c0,0.128 0.078,0.232 0.174,0.232c0.096,0 0.349,0.188 0.561,0.417c0.212,0.229 0.546,0.417 0.742,0.417c0.205,0 0.356,0.105 0.356,0.25c0,0.137 0.141,0.25 0.313,0.25c0.172,0 0.406,0.112 0.52,0.25c0.114,0.137 0.424,0.25 0.687,0.25c0.316,0 0.48,0.085 0.48,0.25c0,0.157 0.159,0.25 0.429,0.25c0.235,0 0.541,0.112 0.678,0.25c0.138,0.138 0.546,0.25 0.91,0.25c0.433,0 0.693,0.086 0.756,0.25c0.07,0.182 0.357,0.25 1.064,0.25c0.627,0 0.993,0.073 1.038,0.208c0.115,0.345 19.035,0.389 19.559,0.046c0.227,-0.149 0.762,-0.254 1.29,-0.254c0.598,0 0.972,-0.084 1.109,-0.25c0.12,-0.145 0.484,-0.25 0.859,-0.25c0.426,0 0.685,-0.087 0.748,-0.25c0.062,-0.163 0.322,-0.25 0.744,-0.25c0.466,0 0.649,-0.071 0.649,-0.25c0,-0.167 0.167,-0.25 0.5,-0.25c0.334,0 0.5,-0.084 0.5,-0.25c0,-0.141 0.149,-0.25 0.339,-0.25c0.186,0 0.382,-0.113 0.434,-0.25c0.053,-0.138 0.173,-0.25 0.268,-0.25c0.094,0 0.345,-0.188 0.557,-0.417c0.213,-0.229 0.465,-0.417 0.561,-0.417c0.096,0 0.175,-0.104 0.175,-0.232c0,-0.128 0.112,-0.275 0.25,-0.328c0.137,-0.053 0.25,-0.286 0.25,-0.518c0,-0.264 0.093,-0.422 0.25,-0.422c0.137,0 0.25,-0.14 0.25,-0.313c0,-0.172 0.112,-0.406 0.25,-0.52c0.137,-0.114 0.25,-0.344 0.25,-0.511c0,-0.166 0.075,-0.349 0.166,-0.406c0.092,-0.056 0.167,-0.323 0.167,-0.593c0,-0.324 0.084,-0.49 0.25,-0.49c0.184,0 0.25,-0.192 0.25,-0.73c0,-0.445 0.097,-0.81 0.25,-0.937c0.186,-0.154 0.25,-0.567 0.25,-1.615c0,-1.03 0.067,-1.476 0.25,-1.658c0.217,-0.217 0.25,-1.636 0.25,-10.718c0,-9.101 -0.033,-10.495 -0.25,-10.675c-0.19,-0.158 -0.25,-0.585 -0.25,-1.776c0,-1.24 -0.052,-1.588 -0.25,-1.664c-0.17,-0.065 -0.25,-0.332 -0.25,-0.833c0,-0.502 -0.08,-0.768 -0.25,-0.834c-0.154,-0.059 -0.25,-0.312 -0.25,-0.661c0,-0.311 -0.075,-0.566 -0.167,-0.566c-0.091,0 -0.166,-0.19 -0.166,-0.422c0,-0.232 -0.113,-0.465 -0.25,-0.517c-0.138,-0.053 -0.25,-0.278 -0.25,-0.5c0,-0.223 -0.113,-0.448 -0.25,-0.5c-0.138,-0.053 -0.25,-0.276 -0.25,-0.495c0,-0.244 -0.098,-0.399 -0.25,-0.399c-0.138,0 -0.25,-0.113 -0.25,-0.25c0,-0.137 -0.113,-0.25 -0.25,-0.25c-0.138,0 -0.25,-0.113 -0.25,-0.25c0,-0.137 -0.113,-0.25 -0.25,-0.25c-0.138,0 -0.25,-0.087 -0.25,-0.194c0,-0.286 -1.204,-1.306 -1.542,-1.306c-0.16,0 -0.292,-0.075 -0.292,-0.167c0,-0.091 -0.225,-0.166 -0.5,-0.166c-0.333,0 -0.5,-0.084 -0.5,-0.25c0,-0.181 -0.185,-0.25 -0.666,-0.25c-0.482,0 -0.667,-0.07 -0.667,-0.25c0,-0.183 -0.192,-0.252 -0.708,-0.256c-0.39,-0.003 -0.854,-0.115 -1.032,-0.25c-0.197,-0.148 -0.696,-0.244 -1.271,-0.244c-0.64,0 -1.016,-0.082 -1.156,-0.25c-0.179,-0.217 -1.4,-0.25 -9.109,-0.25c-7.758,0 -8.913,0.032 -8.997,0.25m15.347,6.672c0.177,0.134 0.614,0.244 0.97,0.244c0.355,0 0.759,0.113 0.896,0.25c0.138,0.138 0.47,0.25 0.739,0.25c0.268,0 0.488,0.075 0.488,0.167c0,0.092 0.112,0.167 0.25,0.167c0.137,0 0.25,0.112 0.25,0.25c0,0.137 0.112,0.25 0.25,0.25c0.137,0 0.25,0.112 0.25,0.25c0,0.137 0.112,0.25 0.25,0.25c0.166,0 0.25,0.166 0.25,0.5c0,0.275 0.075,0.5 0.166,0.5c0.092,0 0.167,0.3 0.167,0.666c0,0.482 0.069,0.667 0.25,0.667c0.22,0 0.25,1.563 0.25,13.066c0,11.46 -0.031,13.077 -0.25,13.161c-0.165,0.063 -0.25,0.324 -0.25,0.768c0,0.369 -0.075,0.672 -0.167,0.672c-0.091,0 -0.166,0.078 -0.166,0.174c0,0.168 -0.294,0.473 -1.234,1.284c-0.24,0.206 -0.577,0.375 -0.75,0.375c-0.173,0 -0.357,0.112 -0.41,0.25c-0.06,0.157 -0.316,0.25 -0.69,0.25c-0.374,0 -0.629,0.093 -0.689,0.25c-0.076,0.198 -0.425,0.25 -1.667,0.25c-1.243,0 -1.591,0.052 -1.667,0.25c-0.081,0.212 -0.673,0.25 -3.911,0.25c-3.281,0 -3.816,-0.035 -3.816,-0.25c0,-0.205 -0.294,-0.25 -1.649,-0.25c-1.311,0 -1.668,-0.051 -1.744,-0.25c-0.06,-0.155 -0.313,-0.25 -0.667,-0.25c-0.354,0 -0.607,-0.095 -0.667,-0.25c-0.052,-0.138 -0.248,-0.25 -0.434,-0.25c-0.186,0 -0.639,-0.3 -1.005,-0.667c-0.367,-0.366 -0.742,-0.666 -0.834,-0.666c-0.091,0 -0.166,-0.19 -0.166,-0.422c0,-0.232 -0.113,-0.465 -0.25,-0.518c-0.162,-0.062 -0.25,-0.321 -0.25,-0.735c0,-0.351 -0.075,-0.685 -0.167,-0.742c-0.109,-0.067 -0.167,-4.415 -0.167,-12.5c0,-8.085 0.058,-12.433 0.167,-12.5c0.092,-0.057 0.167,-0.438 0.167,-0.848c0,-0.509 0.079,-0.776 0.25,-0.842c0.137,-0.052 0.25,-0.266 0.25,-0.474c0,-0.208 0.112,-0.472 0.25,-0.586c0.137,-0.114 0.25,-0.348 0.25,-0.52c0,-0.173 0.112,-0.313 0.25,-0.313c0.137,0 0.25,-0.113 0.25,-0.25c0,-0.138 0.145,-0.25 0.323,-0.25c0.178,0 0.37,-0.075 0.427,-0.167c0.056,-0.092 0.243,-0.167 0.414,-0.167c0.172,0 0.424,-0.112 0.562,-0.25c0.157,-0.157 0.567,-0.25 1.1,-0.25c0.603,0 0.879,-0.073 0.947,-0.25c0.142,-0.37 12.143,-0.365 12.634,0.006m-109.167,0.5c0.19,0.143 0.688,0.244 1.208,0.244c0.487,0 0.885,0.075 0.885,0.167c0,0.092 0.262,0.167 0.583,0.167c0.321,0 0.584,0.077 0.584,0.17c0,0.094 0.187,0.243 0.416,0.33c0.23,0.087 0.417,0.235 0.417,0.329c0,0.094 0.188,0.171 0.417,0.171c0.296,0 0.416,0.09 0.416,0.313c0,0.172 0.113,0.406 0.25,0.52c0.138,0.114 0.25,0.311 0.25,0.437c0,0.126 0.113,0.23 0.25,0.23c0.166,0 0.25,0.165 0.25,0.49c0,0.269 0.075,0.536 0.167,0.593c0.092,0.057 0.167,0.468 0.167,0.915c0,0.499 0.096,0.907 0.25,1.061c0.323,0.324 0.384,22.035 0.062,22.142c-0.103,0.035 -0.226,0.455 -0.272,0.934c-0.046,0.479 -0.149,0.912 -0.229,0.961c-0.079,0.05 -0.145,0.265 -0.145,0.479c0,0.214 -0.112,0.432 -0.25,0.485c-0.137,0.053 -0.25,0.286 -0.25,0.518c0,0.232 -0.085,0.422 -0.189,0.422c-0.104,0 -0.363,0.187 -0.575,0.416c-0.213,0.23 -0.493,0.417 -0.624,0.417c-0.131,0 -0.331,0.112 -0.445,0.25c-0.114,0.137 -0.418,0.25 -0.675,0.25c-0.257,0 -0.58,0.112 -0.718,0.25c-0.155,0.155 -0.564,0.25 -1.077,0.25c-0.582,0 -0.856,0.074 -0.924,0.25c-0.144,0.375 -10.338,0.375 -10.713,0c-0.166,-0.166 -0.582,-0.25 -1.238,-0.25c-0.767,0 -0.988,-0.056 -0.988,-0.25c0,-0.167 -0.167,-0.25 -0.5,-0.25c-0.275,0 -0.5,-0.07 -0.5,-0.155c0,-0.086 -0.162,-0.207 -0.36,-0.27c-0.197,-0.063 -0.525,-0.293 -0.727,-0.511c-0.203,-0.219 -0.445,-0.397 -0.539,-0.397c-0.095,0 -0.219,-0.188 -0.276,-0.417c-0.058,-0.229 -0.178,-0.417 -0.268,-0.417c-0.09,0 -0.164,-0.217 -0.164,-0.482c0,-0.275 -0.107,-0.523 -0.25,-0.578c-0.18,-0.069 -0.25,-0.352 -0.25,-1.018c0,-0.507 -0.075,-0.922 -0.166,-0.922c-0.11,0 -0.167,-3.774 -0.167,-10.99c0,-7.147 0.058,-11.026 0.167,-11.093c0.091,-0.057 0.166,-0.586 0.166,-1.177c0,-0.843 0.054,-1.073 0.25,-1.073c0.157,0 0.25,-0.158 0.25,-0.422c0,-0.232 0.113,-0.465 0.25,-0.518c0.138,-0.052 0.25,-0.275 0.25,-0.494c0,-0.244 0.098,-0.399 0.25,-0.399c0.138,0 0.25,-0.113 0.25,-0.25c0,-0.138 0.113,-0.25 0.25,-0.25c0.138,0 0.25,-0.113 0.25,-0.25c0,-0.156 0.158,-0.25 0.417,-0.25c0.259,0 0.417,-0.095 0.417,-0.25c0,-0.167 0.166,-0.25 0.5,-0.25c0.275,0 0.5,-0.075 0.5,-0.167c0,-0.092 0.398,-0.167 0.884,-0.167c0.52,0 1.019,-0.101 1.209,-0.244c0.268,-0.203 1.185,-0.245 5.323,-0.245c4.139,0 5.056,0.042 5.324,0.245m-49.24,24.391c0,4.815 -0.037,5.676 -0.25,5.853c-0.16,0.133 -0.25,0.501 -0.25,1.021c0,0.447 -0.07,0.813 -0.154,0.813c-0.2,0 -1.18,0.979 -1.18,1.179c0,0.085 -0.225,0.154 -0.5,0.154c-0.333,0 -0.5,0.083 -0.5,0.25c0,0.189 -0.204,0.25 -0.838,0.25c-0.592,0 -0.867,0.074 -0.935,0.25c-0.076,0.199 -0.433,0.25 -1.744,0.25c-1.355,0 -1.649,0.045 -1.649,0.25c0,0.215 -0.519,0.25 -3.667,0.25c-3.148,0 -3.667,-0.035 -3.667,-0.25c0,-0.198 -0.24,-0.25 -1.166,-0.25c-0.926,0 -1.167,-0.052 -1.167,-0.25c0,-0.167 -0.167,-0.25 -0.5,-0.25c-0.275,0 -0.5,-0.074 -0.5,-0.163c0,-0.09 -0.187,-0.211 -0.417,-0.269c-0.229,-0.057 -0.416,-0.209 -0.416,-0.336c0,-0.128 -0.113,-0.232 -0.25,-0.232c-0.141,0 -0.25,-0.149 -0.25,-0.339c0,-0.186 -0.113,-0.381 -0.25,-0.434c-0.143,-0.055 -0.25,-0.303 -0.25,-0.578c0,-0.318 -0.086,-0.482 -0.25,-0.482c-0.192,0 -0.25,-0.213 -0.25,-0.917c0,-0.504 -0.075,-0.917 -0.167,-0.917c-0.105,0 -0.167,-1.083 -0.167,-2.916c0,-1.834 0.062,-2.917 0.167,-2.917c0.092,0 0.167,-0.439 0.167,-0.982c0,-0.719 0.067,-1.008 0.25,-1.078c0.137,-0.053 0.25,-0.286 0.25,-0.518c0,-0.232 0.073,-0.422 0.163,-0.422c0.09,0 0.211,-0.187 0.268,-0.417c0.074,-0.295 0.218,-0.416 0.494,-0.416c0.213,0 0.435,-0.075 0.491,-0.167c0.057,-0.092 0.272,-0.167 0.478,-0.167c0.207,0 0.521,-0.11 0.699,-0.244c0.275,-0.208 1.649,-0.246 9.115,-0.25l8.792,-0.006l0,5.647" id="path0"/>
   <path fill-rule="evenodd" fill="#e5e5e5" d="m193.957,95.679l-5.626,5.654l-93.999,0c-83.443,0 -93.999,0.028 -93.999,0.25c0,0.138 -0.075,0.25 -0.166,0.25c-0.098,0 -0.167,0.584 -0.167,1.417c0,0.833 0.069,1.417 0.167,1.417c0.091,0 0.166,0.112 0.166,0.25c0,0.222 10.565,0.25 94.084,0.25c58.079,0 94.083,0.059 94.083,0.155c0,0.086 0.157,0.205 0.35,0.267c0.379,0.12 0.794,0.506 1.084,1.009c0.101,0.175 0.34,0.342 0.531,0.371c0.237,0.035 0.365,0.195 0.4,0.498c0.032,0.276 0.169,0.469 0.358,0.505c0.348,0.066 0.944,0.61 0.944,0.861c0,0.092 0.075,0.167 0.166,0.167c0.252,0 0.796,0.595 0.862,0.943c0.036,0.192 0.229,0.327 0.515,0.36c0.354,0.041 0.457,0.141 0.457,0.447c0,0.254 0.124,0.434 0.349,0.505c0.193,0.061 0.485,0.246 0.651,0.412c0.165,0.165 0.35,0.457 0.411,0.65c0.072,0.225 0.251,0.35 0.505,0.35c0.307,0 0.407,0.102 0.448,0.458c0.041,0.36 0.151,0.47 0.511,0.511c0.262,0.03 0.458,0.155 0.458,0.292c0,0.131 0.075,0.239 0.167,0.239c0.091,0 0.166,0.112 0.166,0.25c0,0.137 0.113,0.25 0.25,0.25c0.138,0 0.25,0.112 0.25,0.25c0,0.137 0.113,0.25 0.25,0.25c0.139,0 0.25,0.148 0.25,0.333c0,0.265 0.111,0.333 0.542,0.331c0.792,-0.003 1.292,-0.171 1.292,-0.434c0,-0.127 0.112,-0.23 0.25,-0.23c0.137,0 0.25,-0.113 0.25,-0.25c0,-0.138 0.112,-0.25 0.25,-0.25c0.137,0 0.25,-0.113 0.25,-0.25c0,-0.138 0.112,-0.25 0.25,-0.25c0.137,0 0.25,-0.113 0.25,-0.25c0,-0.138 0.112,-0.25 0.25,-0.25c0.137,0 0.25,-0.113 0.25,-0.25c0,-0.138 0.112,-0.25 0.25,-0.25c0.137,0 0.25,-0.081 0.25,-0.179c0,-0.231 0.424,-0.655 0.654,-0.655c0.099,0 0.179,-0.112 0.179,-0.25c0,-0.137 0.112,-0.25 0.25,-0.25c0.137,0 0.25,-0.112 0.25,-0.25c0,-0.137 0.112,-0.25 0.25,-0.25c0.137,0 0.25,-0.112 0.25,-0.25c0,-0.137 0.112,-0.25 0.25,-0.25c0.137,0 0.25,-0.112 0.25,-0.25c0,-0.137 0.112,-0.25 0.25,-0.25c0.137,0 0.25,-0.08 0.25,-0.178c0,-0.231 0.424,-0.655 0.655,-0.655c0.098,0 0.178,-0.112 0.178,-0.25c0,-0.138 0.113,-0.25 0.25,-0.25c0.138,0 0.25,-0.112 0.25,-0.25c0,-0.138 0.113,-0.25 0.25,-0.25c0.138,0 0.25,-0.112 0.25,-0.25c0,-0.138 0.113,-0.25 0.25,-0.25c0.138,0 0.25,-0.112 0.25,-0.25c0,-0.138 0.113,-0.25 0.25,-0.25c0.138,0 0.25,-0.112 0.25,-0.25c0,-0.138 0.113,-0.25 0.25,-0.25c0.138,0 0.25,-0.08 0.25,-0.179c0,-0.23 0.424,-0.654 0.655,-0.654c0.098,0 0.179,-0.113 0.179,-0.25c0,-0.138 0.112,-0.25 0.25,-0.25c0.137,0 0.25,-0.113 0.25,-0.25c0,-0.222 10.618,-0.25 94.564,-0.25l94.563,0l0.101,-0.375c0.13,-0.486 0.13,-2.598 0,-3.084l-0.101,-0.375l-94.147,0c-61.434,0 -94.147,-0.056 -94.147,-0.163c0,-0.09 -0.187,-0.211 -0.417,-0.268c-0.229,-0.058 -0.416,-0.172 -0.416,-0.253c0,-0.082 -0.108,-0.149 -0.239,-0.149c-0.131,0 -0.262,-0.169 -0.291,-0.375c-0.03,-0.206 -0.211,-0.444 -0.403,-0.528c-0.192,-0.085 -0.429,-0.366 -0.527,-0.625c-0.098,-0.26 -0.301,-0.472 -0.45,-0.472c-0.15,0 -0.447,-0.187 -0.659,-0.417c-0.212,-0.229 -0.471,-0.416 -0.575,-0.416c-0.105,0 -0.19,-0.113 -0.19,-0.25c0,-0.138 -0.107,-0.25 -0.239,-0.25c-0.136,0 -0.261,-0.196 -0.291,-0.459c-0.037,-0.321 -0.16,-0.473 -0.412,-0.509c-0.216,-0.031 -0.399,-0.21 -0.459,-0.447c-0.055,-0.218 -0.257,-0.446 -0.449,-0.507c-0.447,-0.142 -0.919,-0.614 -1.061,-1.062c-0.072,-0.225 -0.251,-0.35 -0.505,-0.35c-0.306,0 -0.407,-0.102 -0.448,-0.457c-0.032,-0.279 -0.168,-0.478 -0.349,-0.513c-0.386,-0.073 -1.91,-1.597 -1.983,-1.983c-0.035,-0.181 -0.234,-0.317 -0.513,-0.349c-0.262,-0.031 -0.457,-0.156 -0.457,-0.292c0,-0.666 -1.039,0.244 -6.21,5.44" id="path1"/>
   <path fill-rule="evenodd" fill="#e5e5e5" id="path2"/>
   <path fill-rule="evenodd" fill="#e5e5e5" id="path3"/>
   <path fill-rule="evenodd" fill="#e5e5e5" id="path4"/>
  </g>
 </g>
</svg>